# xmcd CD database file
#
# Track frame offsets:
#	150
#	20170
#	40192
#	60212
#	79930
#
# Disc length: 1326 seconds
#
# Revision: 2
# Processed by: cddbd v1.4PL0 Copyright (c) Steve Scherf et al.
# Submitted via: CDex 1.50
#
DISCID=35052c05
DTITLE=Sam Salter - After 12, Before 6 Single
DYEAR=1900
DGENRE=
TTITLE0=Album Version
TTITLE1=Emporer Searcy Bass Mix
TTITLE2=Big Herb Remix
TTITLE3=Big Herb Instrumental
TTITLE4=Emporer Searcy Instrumental
EXTD=
EXTT0=
EXTT1=
EXTT2=
EXTT3=
EXTT4=
PLAYORDER=
